HIERARCHY
ROOT Pelvis
{
	OFFSET -0.001795 -0.223333 0.028219
	CHANNELS 6 Xposition Yposition Zposition Zrotation Yrotation Xrotation 
	JOINT Left_hip
	{
		OFFSET 0.069520 -0.091406 -0.006815
		CHANNELS 3 Zrotation Yrotation Xrotation
		JOINT Left_knee
		{
			OFFSET 0.034277 -0.375199 -0.004496
			CHANNELS 3 Zrotation Yrotation Xrotation
			JOINT Left_ankle
			{
				OFFSET -0.013596 -0.397960 -0.043693
				CHANNELS 3 Zrotation Yrotation Xrotation
				JOINT Left_foot
				{
					OFFSET 0.026358 -0.055791 0.119288
					CHANNELS 3 Zrotation Yrotation Xrotation
					End Site
					{
						OFFSET 0.000000 0.000000 0.000000
					}
				}
			}
		}
	}
	JOINT Right_hip
	{
		OFFSET -0.067670 -0.090522 -0.004320
		CHANNELS 3 Zrotation Yrotation Xrotation
		JOINT Right_knee
		{
			OFFSET -0.038290 -0.382569 -0.008850
			CHANNELS 3 Zrotation Yrotation Xrotation
			JOINT Right_ankle
			{
				OFFSET 0.015774 -0.398415 -0.042312
				CHANNELS 3 Zrotation Yrotation Xrotation
				JOINT Right_foot
				{
					OFFSET -0.025372 -0.048144 0.123348
					CHANNELS 3 Zrotation Yrotation Xrotation
					End Site
					{
						OFFSET 0.000000 0.000000 0.000000
					}
				}
			}
		}
	}
	JOINT Spine1
	{
		OFFSET -0.002533 0.108963 -0.026696
		CHANNELS 3 Zrotation Yrotation Xrotation
		JOINT Spine2
		{
			OFFSET 0.005487 0.135180 0.001092
			CHANNELS 3 Zrotation Yrotation Xrotation
			JOINT Spine3
			{
				OFFSET 0.001457 0.052922 0.025425
				CHANNELS 3 Zrotation Yrotation Xrotation
				JOINT Neck
				{
					OFFSET -0.002778 0.213870 -0.042857
					CHANNELS 3 Zrotation Yrotation Xrotation
					JOINT Head
					{
						OFFSET 0.005152 0.064970 0.051349
						CHANNELS 3 Zrotation Yrotation Xrotation
						End Site
						{
							OFFSET 0.000000 0.000000 0.000000
						}
					}
				}
				JOINT Left_collar
				{
					OFFSET 0.078845 0.121749 -0.034090
					CHANNELS 3 Zrotation Yrotation Xrotation
					JOINT Left_shoulder
					{
						OFFSET 0.090977 0.030469 -0.008868
						CHANNELS 3 Zrotation Yrotation Xrotation
						JOINT Left_elbow
						{
							OFFSET 0.259612 -0.012772 -0.027456
							CHANNELS 3 Zrotation Yrotation Xrotation
							JOINT Left_wrist
							{
								OFFSET 0.249234 0.008986 -0.001171
								CHANNELS 3 Zrotation Yrotation Xrotation
								JOINT Left_palm
								{
									OFFSET 0.084042 -0.008162 -0.014945
									CHANNELS 3 Zrotation Yrotation Xrotation
									End Site
									{
										OFFSET 0.000000 0.000000 0.000000
									}
								}
							}
						}
					}
				}
				JOINT Right_collar
				{
					OFFSET -0.081759 0.118833 -0.038615
					CHANNELS 3 Zrotation Yrotation Xrotation
					JOINT Right_shoulder
					{
						OFFSET -0.096012 0.032551 -0.009143
						CHANNELS 3 Zrotation Yrotation Xrotation
						JOINT Right_elbow
						{
							OFFSET -0.253742 -0.013329 -0.021401
							CHANNELS 3 Zrotation Yrotation Xrotation
							JOINT Right_wrist
							{
								OFFSET -0.255298 0.007772 -0.005559
								CHANNELS 3 Zrotation Yrotation Xrotation
								JOINT Right_palm
								{
									OFFSET -0.084622 -0.006117 -0.010315
									CHANNELS 3 Zrotation Yrotation Xrotation
									End Site
									{
										OFFSET 0.000000 0.000000 0.000000
									}
								}
							}
						}
					}
				}
			}
		}
	}
}
MOTION
Frames: 10
Frame Time: 0.016667
0.062561 0.890206 -0.045348 -7.940596 -2.570338 -30.875042 8.443227 5.768232 13.961931 -4.044290 -3.532585 24.362617 2.281235 11.622355 -13.327899 -0.622532 0.325813 -2.941303 -20.575127 -1.202391 -0.833372 9.911727 0.282621 43.098618 6.405550 -7.453852 0.219536 -0.830247 2.715128 0.039140 -1.333148 -0.434264 13.309760 9.848833 -0.646461 -9.873580 5.605121 -1.423440 12.117068 4.127071 9.183565 7.197848 2.980853 -8.259001 -8.777064 12.578355 0.710947 -15.904587 24.972107 -34.661793 -68.084015 124.161659 -30.765926 -87.272568 -21.481327 3.426329 1.872532 0.000000 0.000000 0.000000 9.639085 -9.534234 -8.699315 38.362423 0.804710 -20.040747 -121.447105 45.678139 -97.263824 16.996866 19.718094 -34.712944 0.000000 0.000000 0.000000 
0.062524 0.889406 -0.045913 -8.062693 -2.469283 -30.718136 8.339145 5.581259 13.550667 -3.862464 -3.545891 24.715658 2.199062 11.481569 -13.832248 -0.591826 0.450104 -2.963554 -20.371321 -1.146543 -0.834003 9.918012 0.578978 43.102497 6.439588 -7.389672 -0.091200 -0.858623 2.812350 0.021133 -1.231135 -0.338473 13.336972 9.923528 -0.709256 -9.942628 5.716443 -1.398886 12.209444 4.009793 9.180299 7.160875 2.930006 -8.156240 -8.886892 12.408756 0.783051 -15.860249 24.584332 -34.796307 -67.799500 124.361275 -30.916567 -87.194176 -21.782669 3.563727 2.155734 0.000000 0.000000 0.000000 9.757215 -9.699027 -8.641455 38.552895 0.584274 -19.973537 -121.258827 45.492859 -96.870605 17.413118 19.655039 -34.402809 0.000000 0.000000 0.000000 
0.062438 0.888243 -0.046353 -8.173374 -2.444178 -30.664635 8.340762 5.381338 13.306496 -3.838549 -3.512405 24.998085 2.168751 11.454014 -14.202498 -0.594455 0.488091 -2.973910 -20.256252 -1.141717 -0.915924 9.861343 0.602529 43.385822 6.380016 -7.278939 -0.202879 -0.908381 2.878347 -0.053415 -1.168128 -0.204586 13.423464 9.998144 -0.791745 -9.962511 5.836415 -1.369242 12.176227 4.033339 9.058582 7.233135 2.910555 -8.202744 -8.814605 12.325420 0.844525 -15.867319 24.491337 -34.933517 -67.732460 124.433075 -31.018105 -87.100266 -22.362537 3.490431 2.352885 0.000000 0.000000 0.000000 9.902716 -9.855287 -8.616109 38.669231 0.232494 -19.866364 -121.172997 45.287540 -96.693192 17.979301 19.675371 -34.002327 0.000000 0.000000 0.000000 
0.062283 0.886722 -0.046641 -8.266270 -2.452957 -30.663227 8.412342 5.218839 13.131718 -3.933434 -3.474802 25.271387 2.156987 11.563024 -14.434745 -0.620306 0.476184 -2.973007 -20.207319 -1.117866 -1.038090 9.819579 0.507416 43.837135 6.304844 -7.137937 -0.286434 -0.970878 2.922053 -0.130623 -1.123846 -0.075415 13.546099 10.053611 -0.857465 -10.009128 5.947917 -1.384512 12.112431 4.101230 8.928555 7.271184 2.929034 -8.273675 -8.630965 12.311897 0.903819 -15.891327 24.649769 -34.987633 -67.891983 124.413040 -31.096884 -87.032387 -22.981533 3.326653 2.518404 0.000000 0.000000 0.000000 10.004814 -10.000247 -8.604239 38.786690 -0.134271 -19.748528 -121.225822 45.080219 -96.748955 18.506664 19.716448 -33.744713 0.000000 0.000000 0.000000 
0.062070 0.885048 -0.046909 -8.334814 -2.453336 -30.662773 8.518493 5.143690 12.929056 -4.108401 -3.476151 25.597136 2.131234 11.831475 -14.524878 -0.659304 0.450807 -2.961427 -20.202150 -1.005132 -1.159279 9.871342 0.446604 44.344746 6.291432 -6.982834 -0.512387 -1.037377 2.952518 -0.156587 -1.078264 0.006241 13.681740 10.070941 -0.869857 -10.158278 6.033930 -1.495098 12.112902 4.117638 8.900607 7.132070 2.992392 -8.244435 -8.406851 12.351810 0.969505 -15.897859 25.014013 -34.870491 -68.284790 124.337334 -31.179379 -87.032394 -23.399620 3.191904 2.703938 0.000000 0.000000 0.000000 9.992571 -10.131185 -8.586425 38.981281 -0.399801 -19.649645 -121.452942 44.887798 -97.054710 18.805101 19.720871 -33.864792 0.000000 0.000000 0.000000 
0.061868 0.884127 -0.047034 -8.382353 -2.420741 -30.666267 8.589056 5.081420 12.756464 -4.282924 -3.514225 25.869522 2.162676 12.182726 -14.465921 -0.712332 0.431154 -2.944427 -20.224615 -0.814592 -1.220735 9.991908 0.458000 44.802364 6.342615 -6.840911 -0.779305 -1.074224 2.996794 -0.175803 -1.052827 0.046661 13.795118 10.087017 -0.870657 -10.313424 6.113200 -1.621137 12.100004 4.115273 8.899172 7.039068 3.076515 -8.176897 -8.280828 12.375358 1.026645 -15.898997 25.451660 -34.634621 -68.798050 124.293427 -31.243240 -87.106636 -23.724388 3.071308 2.902684 0.000000 0.000000 0.000000 9.967233 -10.263898 -8.551409 39.199383 -0.584768 -19.568602 -121.808983 44.699570 -97.470955 18.948366 19.689562 -34.088173 0.000000 0.000000 0.000000 
0.061735 0.884273 -0.047057 -8.412239 -2.330599 -30.676718 8.554172 4.957053 12.671923 -4.376281 -3.588130 25.982674 2.323468 12.539725 -14.249802 -0.780257 0.436416 -2.927297 -20.258015 -0.557183 -1.163736 10.157040 0.580383 45.104099 6.461978 -6.739355 -0.985895 -1.047856 3.081889 -0.232741 -1.068984 0.052223 13.850966 10.138846 -0.901525 -10.378090 6.204670 -1.682517 11.996279 4.126790 8.848680 7.215345 3.156636 -8.132384 -8.391506 12.312714 1.060301 -15.906974 25.831839 -34.334915 -69.320648 124.368858 -31.265909 -87.261589 -24.063435 2.950550 3.108601 0.000000 0.000000 0.000000 10.030068 -10.414275 -8.488403 39.387218 -0.709663 -19.503883 -122.250000 44.505592 -97.859390 19.010382 19.620741 -34.140167 0.000000 0.000000 0.000000 
0.061690 0.885379 -0.046902 -8.450068 -2.238542 -30.717644 8.485438 4.824069 12.697990 -4.388465 -3.718307 25.968473 2.518177 12.824710 -13.951640 -0.853749 0.431826 -2.900023 -20.280064 -0.269968 -1.069610 10.354384 0.772031 45.395786 6.579936 -6.626495 -1.161537 -0.964988 3.152162 -0.298903 -1.096284 0.046353 13.899621 10.194862 -0.923588 -10.407308 6.268523 -1.690100 11.856631 4.184992 8.835484 7.566840 3.208674 -8.082496 -8.586550 12.223688 1.112758 -15.907294 26.172588 -34.037773 -69.830269 124.548714 -31.228270 -87.464149 -24.429111 2.877593 3.223045 0.000000 0.000000 0.000000 10.207258 -10.567599 -8.432834 39.502777 -0.809960 -19.490053 -122.669044 44.365604 -98.183098 19.073669 19.613831 -34.061993 0.000000 0.000000 0.000000 
0.061695 0.886565 -0.046629 -8.521446 -2.200276 -30.812555 8.454246 4.736230 12.856870 -4.319245 -3.924601 25.858595 2.649232 12.960959 -13.648540 -0.923518 0.382638 -2.852508 -20.269241 0.009862 -1.019433 10.571812 0.990482 45.823071 6.626451 -6.451035 -1.335670 -0.832167 3.151930 -0.345946 -1.104210 0.052429 13.991424 10.223457 -0.897962 -10.456025 6.264811 -1.655078 11.735919 4.323832 8.945369 7.999881 3.208696 -7.999362 -8.713642 12.168126 1.226346 -15.885474 26.494072 -33.809528 -70.306389 124.817520 -31.111189 -87.680542 -24.833508 2.899106 3.146767 0.000000 0.000000 0.000000 10.525217 -10.709002 -8.420250 39.504078 -0.921109 -19.561768 -122.961540 44.340588 -98.407806 19.221331 19.768339 -33.894424 0.000000 0.000000 0.000000 
0.061708 0.887842 -0.046354 -8.628787 -2.212421 -30.922642 8.506069 4.706716 13.039190 -4.213723 -4.107363 25.755688 2.687612 12.975222 -13.348340 -0.960153 0.325157 -2.834167 -20.250841 0.246435 -1.067860 10.832772 1.179491 46.433441 6.642125 -6.175141 -1.430423 -0.707455 3.101688 -0.369510 -1.092458 0.051436 14.098649 10.235214 -0.804289 -10.559067 6.206477 -1.616155 11.679574 4.475125 9.223814 8.441949 3.103772 -7.839354 -8.784411 12.172525 1.343530 -15.852937 26.781769 -33.638851 -70.725891 125.187675 -30.962772 -87.953842 -25.192146 2.981202 2.944790 0.000000 0.000000 0.000000 10.864802 -10.803176 -8.410505 39.423954 -0.972425 -19.678032 -123.073143 44.475922 -98.484024 19.322281 19.991508 -33.770557 0.000000 0.000000 0.000000 
